<mxfile host="app.diagrams.net" agent="Mozilla/5.0 (Windows NT 10.0; Win64; x64) AppleWebKit/537.36 (KHTML, like Gecko) Chrome/128.0.0.0 Safari/537.36" version="24.7.12">
  <diagram name="architektura" id="5f0bae14-7c28-e335-631c-24af17079c00">
    <mxGraphModel dx="3562" dy="1793" grid="1" gridSize="10" guides="1" tooltips="1" connect="1" arrows="1" fold="1" page="1" pageScale="1" pageWidth="1100" pageHeight="850" background="none" math="0" shadow="0">
      <root>
        <mxCell id="0" />
        <mxCell id="1" parent="0" />
        <mxCell id="gY4HQTh1pNE1RITPi49o-1" value="" style="rounded=1;whiteSpace=wrap;html=1;strokeColor=default;gradientColor=none;fillColor=none;" vertex="1" parent="1">
          <mxGeometry x="310" y="30" width="460" height="630" as="geometry" />
        </mxCell>
        <mxCell id="gY4HQTh1pNE1RITPi49o-2" value="Backend aplikacji Harmony Home Net" style="text;strokeColor=none;fillColor=none;html=1;fontSize=24;fontStyle=1;verticalAlign=middle;align=center;fontFamily=Garamond;" vertex="1" parent="1">
          <mxGeometry x="361" y="50" width="350" height="20" as="geometry" />
        </mxCell>
        <mxCell id="gY4HQTh1pNE1RITPi49o-5" value="&lt;font style=&quot;font-size: 16px;&quot;&gt;Warstwa logiki biznesowej&lt;/font&gt;" style="rounded=0;whiteSpace=wrap;html=1;fillColor=none;" vertex="1" parent="1">
          <mxGeometry x="440" y="330" width="180" height="60" as="geometry" />
        </mxCell>
        <mxCell id="gY4HQTh1pNE1RITPi49o-6" value="&lt;font style=&quot;font-size: 17px;&quot;&gt;Warstwa dostępu do danych&lt;/font&gt;" style="rounded=0;whiteSpace=wrap;html=1;fontFamily=Helvetica;fillColor=none;" vertex="1" parent="1">
          <mxGeometry x="440" y="500" width="180" height="60" as="geometry" />
        </mxCell>
        <mxCell id="gY4HQTh1pNE1RITPi49o-7" value="" style="endArrow=classic;startArrow=classic;html=1;rounded=0;entryX=0.5;entryY=1;entryDx=0;entryDy=0;" edge="1" parent="1" source="gY4HQTh1pNE1RITPi49o-6" target="gY4HQTh1pNE1RITPi49o-5">
          <mxGeometry width="50" height="50" relative="1" as="geometry">
            <mxPoint x="520" y="360" as="sourcePoint" />
            <mxPoint x="520" y="320" as="targetPoint" />
          </mxGeometry>
        </mxCell>
        <mxCell id="gY4HQTh1pNE1RITPi49o-8" value="" style="endArrow=classic;startArrow=classic;html=1;rounded=0;entryX=0.5;entryY=1;entryDx=0;entryDy=0;exitX=0.5;exitY=0;exitDx=0;exitDy=0;entryPerimeter=0;" edge="1" parent="1" source="gY4HQTh1pNE1RITPi49o-5" target="gY4HQTh1pNE1RITPi49o-38">
          <mxGeometry width="50" height="50" relative="1" as="geometry">
            <mxPoint x="520" y="360" as="sourcePoint" />
            <mxPoint x="530" y="210" as="targetPoint" />
          </mxGeometry>
        </mxCell>
        <mxCell id="gY4HQTh1pNE1RITPi49o-9" value="" style="rounded=1;whiteSpace=wrap;html=1;strokeColor=default;gradientColor=none;fillColor=none;" vertex="1" parent="1">
          <mxGeometry x="860" y="60" width="460" height="190" as="geometry" />
        </mxCell>
        <mxCell id="gY4HQTh1pNE1RITPi49o-10" value="Frontend aplikacji Harmony Home Net" style="text;strokeColor=none;fillColor=none;html=1;fontSize=24;fontStyle=1;verticalAlign=middle;align=center;fontFamily=Garamond;" vertex="1" parent="1">
          <mxGeometry x="1040" y="70" width="100" height="40" as="geometry" />
        </mxCell>
        <mxCell id="gY4HQTh1pNE1RITPi49o-11" value="&lt;font style=&quot;font-size: 17px;&quot;&gt;Warstwa prezentacji&lt;/font&gt;" style="rounded=0;whiteSpace=wrap;html=1;fillColor=none;" vertex="1" parent="1">
          <mxGeometry x="1000" y="150" width="180" height="60" as="geometry" />
        </mxCell>
        <mxCell id="gY4HQTh1pNE1RITPi49o-12" value="" style="endArrow=classic;startArrow=classic;html=1;rounded=0;entryX=0;entryY=0.5;entryDx=0;entryDy=0;" edge="1" parent="1" source="gY4HQTh1pNE1RITPi49o-60" target="gY4HQTh1pNE1RITPi49o-11">
          <mxGeometry width="50" height="50" relative="1" as="geometry">
            <mxPoint x="850" y="180" as="sourcePoint" />
            <mxPoint x="570" y="310" as="targetPoint" />
          </mxGeometry>
        </mxCell>
        <mxCell id="gY4HQTh1pNE1RITPi49o-16" value="Kontener Docker - baza danych" style="text;strokeColor=none;fillColor=none;html=1;fontSize=24;fontStyle=1;verticalAlign=middle;align=center;fontFamily=Garamond;" vertex="1" parent="1">
          <mxGeometry x="1035" y="410" width="100" height="40" as="geometry" />
        </mxCell>
        <mxCell id="gY4HQTh1pNE1RITPi49o-17" value="" style="rounded=1;whiteSpace=wrap;html=1;fillColor=none;" vertex="1" parent="1">
          <mxGeometry x="892.5" y="410" width="395" height="200" as="geometry" />
        </mxCell>
        <mxCell id="gY4HQTh1pNE1RITPi49o-18" value="" style="shape=datastore;whiteSpace=wrap;html=1;" vertex="1" parent="1">
          <mxGeometry x="1060" y="490" width="60" height="60" as="geometry" />
        </mxCell>
        <mxCell id="gY4HQTh1pNE1RITPi49o-19" value="" style="image;aspect=fixed;html=1;points=[];align=center;fontSize=12;image=img/lib/azure2/databases/Azure_Database_PostgreSQL_Server.svg;" vertex="1" parent="1">
          <mxGeometry x="1095" y="520" width="30" height="40" as="geometry" />
        </mxCell>
        <mxCell id="gY4HQTh1pNE1RITPi49o-20" value="" style="endArrow=classic;startArrow=classic;html=1;rounded=0;exitX=1;exitY=0.5;exitDx=0;exitDy=0;" edge="1" parent="1" source="gY4HQTh1pNE1RITPi49o-6">
          <mxGeometry width="50" height="50" relative="1" as="geometry">
            <mxPoint x="520" y="360" as="sourcePoint" />
            <mxPoint x="1060" y="530" as="targetPoint" />
          </mxGeometry>
        </mxCell>
        <mxCell id="gY4HQTh1pNE1RITPi49o-26" value="" style="rounded=1;whiteSpace=wrap;html=1;fillColor=none;dashed=1;" vertex="1" parent="1">
          <mxGeometry x="-230" y="240" width="240" height="170" as="geometry" />
        </mxCell>
        <mxCell id="gY4HQTh1pNE1RITPi49o-27" value="Systemy urządzeń&amp;nbsp;&lt;div&gt;zewnętrznych&lt;div&gt;np.: liczniki&lt;/div&gt;&lt;/div&gt;" style="text;strokeColor=none;fillColor=none;html=1;fontSize=24;fontStyle=1;verticalAlign=middle;align=center;" vertex="1" parent="1">
          <mxGeometry x="-155" y="300" width="100" height="40" as="geometry" />
        </mxCell>
        <mxCell id="gY4HQTh1pNE1RITPi49o-28" value="" style="rounded=1;whiteSpace=wrap;html=1;fillColor=none;dashed=1;" vertex="1" parent="1">
          <mxGeometry x="-240" y="560" width="230" height="50" as="geometry" />
        </mxCell>
        <mxCell id="gY4HQTh1pNE1RITPi49o-29" value="Serwer OAuth 2&amp;nbsp;" style="text;strokeColor=none;fillColor=none;html=1;fontSize=24;fontStyle=1;verticalAlign=middle;align=center;" vertex="1" parent="1">
          <mxGeometry x="-175" y="560" width="100" height="40" as="geometry" />
        </mxCell>
        <mxCell id="gY4HQTh1pNE1RITPi49o-33" value="" style="rounded=1;whiteSpace=wrap;html=1;fillColor=none;dashed=1;" vertex="1" parent="1">
          <mxGeometry x="970" y="270" width="230" height="65" as="geometry" />
        </mxCell>
        <mxCell id="gY4HQTh1pNE1RITPi49o-34" value="Client&lt;div&gt;&amp;nbsp;OAuth 2&amp;nbsp;&lt;/div&gt;" style="text;strokeColor=none;fillColor=none;html=1;fontSize=24;fontStyle=1;verticalAlign=middle;align=center;" vertex="1" parent="1">
          <mxGeometry x="1035" y="282.5" width="100" height="40" as="geometry" />
        </mxCell>
        <mxCell id="gY4HQTh1pNE1RITPi49o-35" value="" style="endArrow=classic;startArrow=classic;html=1;rounded=0;entryX=1;entryY=0.5;entryDx=0;entryDy=0;" edge="1" parent="1" target="gY4HQTh1pNE1RITPi49o-33">
          <mxGeometry width="50" height="50" relative="1" as="geometry">
            <mxPoint x="1260" y="250" as="sourcePoint" />
            <mxPoint x="1440" y="280" as="targetPoint" />
          </mxGeometry>
        </mxCell>
        <mxCell id="gY4HQTh1pNE1RITPi49o-37" value="" style="image;sketch=0;aspect=fixed;html=1;points=[];align=center;fontSize=12;image=img/lib/mscae/Docker.svg;" vertex="1" parent="1">
          <mxGeometry x="1246.83" y="570" width="73.17" height="60" as="geometry" />
        </mxCell>
        <mxCell id="gY4HQTh1pNE1RITPi49o-38" value="" style="aspect=fixed;sketch=0;html=1;dashed=0;whitespace=wrap;verticalLabelPosition=bottom;verticalAlign=top;fillColor=#2875E2;strokeColor=#ffffff;points=[[0.005,0.63,0],[0.1,0.2,0],[0.9,0.2,0],[0.5,0,0],[0.995,0.63,0],[0.72,0.99,0],[0.5,1,0],[0.28,0.99,0]];shape=mxgraph.kubernetes.icon2;kubernetesLabel=1;prIcon=api" vertex="1" parent="1">
          <mxGeometry x="486.77" y="138.5" width="86.46" height="83" as="geometry" />
        </mxCell>
        <mxCell id="gY4HQTh1pNE1RITPi49o-39" value="" style="outlineConnect=0;dashed=0;verticalLabelPosition=bottom;verticalAlign=top;align=center;html=1;shape=mxgraph.aws3.bank;fillColor=#5294CF;gradientColor=none;" vertex="1" parent="1">
          <mxGeometry x="-165" y="60" width="120" height="110" as="geometry" />
        </mxCell>
        <mxCell id="gY4HQTh1pNE1RITPi49o-40" value="Services" style="html=1;whiteSpace=wrap;strokeColor=none;fillColor=#0079D6;labelPosition=center;verticalLabelPosition=middle;verticalAlign=top;align=center;fontSize=12;outlineConnect=0;spacingTop=-6;fontColor=#FFFFFF;sketch=0;shape=mxgraph.sitemap.services;" vertex="1" parent="1">
          <mxGeometry x="-90" y="380" width="120" height="70" as="geometry" />
        </mxCell>
        <mxCell id="gY4HQTh1pNE1RITPi49o-45" value="Security" style="html=1;whiteSpace=wrap;strokeColor=none;fillColor=#0079D6;labelPosition=center;verticalLabelPosition=middle;verticalAlign=top;align=center;fontSize=12;outlineConnect=0;spacingTop=-6;fontColor=#FFFFFF;sketch=0;shape=mxgraph.sitemap.security;" vertex="1" parent="1">
          <mxGeometry x="-40" y="600" width="120" height="70" as="geometry" />
        </mxCell>
        <mxCell id="gY4HQTh1pNE1RITPi49o-46" value="" style="image;aspect=fixed;perimeter=ellipsePerimeter;html=1;align=center;shadow=0;dashed=0;spacingTop=3;image=img/lib/active_directory/security.svg;" vertex="1" parent="1">
          <mxGeometry x="1180" y="310" width="31.5" height="50" as="geometry" />
        </mxCell>
        <mxCell id="gY4HQTh1pNE1RITPi49o-47" value="Services" style="html=1;whiteSpace=wrap;strokeColor=none;fillColor=#0079D6;labelPosition=center;verticalLabelPosition=middle;verticalAlign=top;align=center;fontSize=12;outlineConnect=0;spacingTop=-6;fontColor=#FFFFFF;sketch=0;shape=mxgraph.sitemap.services;" vertex="1" parent="1">
          <mxGeometry x="580" y="380" width="120" height="70" as="geometry" />
        </mxCell>
        <mxCell id="gY4HQTh1pNE1RITPi49o-49" value="" style="shape=actor;whiteSpace=wrap;html=1;" vertex="1" parent="1">
          <mxGeometry x="1510" y="50" width="40" height="60" as="geometry" />
        </mxCell>
        <mxCell id="gY4HQTh1pNE1RITPi49o-50" value="" style="shape=actor;whiteSpace=wrap;html=1;" vertex="1" parent="1">
          <mxGeometry x="1510" y="190" width="40" height="60" as="geometry" />
        </mxCell>
        <mxCell id="gY4HQTh1pNE1RITPi49o-51" value="&lt;font style=&quot;font-size: 16px;&quot;&gt;Mieszkańcy&lt;/font&gt;" style="text;html=1;align=center;verticalAlign=middle;whiteSpace=wrap;rounded=0;" vertex="1" parent="1">
          <mxGeometry x="1500" y="109" width="60" height="30" as="geometry" />
        </mxCell>
        <mxCell id="gY4HQTh1pNE1RITPi49o-52" value="&lt;font style=&quot;font-size: 16px;&quot;&gt;Administracja&lt;/font&gt;" style="text;html=1;align=center;verticalAlign=middle;whiteSpace=wrap;rounded=0;" vertex="1" parent="1">
          <mxGeometry x="1500" y="249" width="60" height="30" as="geometry" />
        </mxCell>
        <mxCell id="gY4HQTh1pNE1RITPi49o-53" value="" style="endArrow=classic;startArrow=classic;html=1;rounded=0;entryX=0;entryY=0.667;entryDx=0;entryDy=0;entryPerimeter=0;exitX=1.001;exitY=0.16;exitDx=0;exitDy=0;exitPerimeter=0;" edge="1" parent="1" source="gY4HQTh1pNE1RITPi49o-9" target="gY4HQTh1pNE1RITPi49o-49">
          <mxGeometry width="50" height="50" relative="1" as="geometry">
            <mxPoint x="1380" y="110" as="sourcePoint" />
            <mxPoint x="1430" y="60" as="targetPoint" />
          </mxGeometry>
        </mxCell>
        <mxCell id="gY4HQTh1pNE1RITPi49o-54" value="" style="endArrow=classic;startArrow=classic;html=1;rounded=0;entryX=-0.029;entryY=0.672;entryDx=0;entryDy=0;entryPerimeter=0;exitX=1.003;exitY=0.896;exitDx=0;exitDy=0;exitPerimeter=0;" edge="1" parent="1" source="gY4HQTh1pNE1RITPi49o-9" target="gY4HQTh1pNE1RITPi49o-50">
          <mxGeometry width="50" height="50" relative="1" as="geometry">
            <mxPoint x="1370" y="260" as="sourcePoint" />
            <mxPoint x="1420" y="210" as="targetPoint" />
          </mxGeometry>
        </mxCell>
        <mxCell id="gY4HQTh1pNE1RITPi49o-57" value="" style="endArrow=classic;startArrow=classic;html=1;rounded=0;entryX=0;entryY=0.5;entryDx=0;entryDy=0;exitX=0.94;exitY=0.504;exitDx=0;exitDy=0;exitPerimeter=0;" edge="1" parent="1" source="gY4HQTh1pNE1RITPi49o-38" target="gY4HQTh1pNE1RITPi49o-43">
          <mxGeometry width="50" height="50" relative="1" as="geometry">
            <mxPoint x="568" y="180" as="sourcePoint" />
            <mxPoint x="790" y="180" as="targetPoint" />
          </mxGeometry>
        </mxCell>
        <mxCell id="gY4HQTh1pNE1RITPi49o-43" value="&lt;font style=&quot;font-size: 16px;&quot;&gt;Checklist&lt;br&gt;security&lt;/font&gt;" style="sketch=0;outlineConnect=0;fontColor=#232F3E;gradientColor=none;strokeColor=#232F3E;fillColor=none;dashed=0;verticalLabelPosition=bottom;verticalAlign=top;align=center;html=1;fontSize=12;fontStyle=0;aspect=fixed;shape=mxgraph.aws4.resourceIcon;resIcon=mxgraph.aws4.checklist_security;" vertex="1" parent="1">
          <mxGeometry x="620" y="150" width="60" height="60" as="geometry" />
        </mxCell>
        <mxCell id="gY4HQTh1pNE1RITPi49o-59" value="Bankowość" style="text;strokeColor=none;fillColor=none;html=1;fontSize=24;fontStyle=1;verticalAlign=middle;align=center;" vertex="1" parent="1">
          <mxGeometry x="-150" y="170" width="100" height="40" as="geometry" />
        </mxCell>
        <mxCell id="gY4HQTh1pNE1RITPi49o-61" value="" style="endArrow=classic;startArrow=classic;html=1;rounded=0;entryX=0;entryY=0.5;entryDx=0;entryDy=0;" edge="1" parent="1" source="gY4HQTh1pNE1RITPi49o-43" target="gY4HQTh1pNE1RITPi49o-60">
          <mxGeometry width="50" height="50" relative="1" as="geometry">
            <mxPoint x="680" y="180" as="sourcePoint" />
            <mxPoint x="1000" y="180" as="targetPoint" />
          </mxGeometry>
        </mxCell>
        <mxCell id="gY4HQTh1pNE1RITPi49o-60" value="&lt;font style=&quot;font-size: 16px;&quot;&gt;Encrypted&lt;br&gt;data&lt;/font&gt;" style="sketch=0;outlineConnect=0;fontColor=#232F3E;gradientColor=none;strokeColor=#232F3E;fillColor=none;dashed=0;verticalLabelPosition=bottom;verticalAlign=top;align=center;html=1;fontSize=12;fontStyle=0;aspect=fixed;shape=mxgraph.aws4.resourceIcon;resIcon=mxgraph.aws4.encrypted_data;" vertex="1" parent="1">
          <mxGeometry x="790" y="150" width="60" height="60" as="geometry" />
        </mxCell>
        <mxCell id="gY4HQTh1pNE1RITPi49o-62" value="" style="rounded=1;whiteSpace=wrap;html=1;fillColor=none;" vertex="1" parent="1">
          <mxGeometry x="-340" y="-50" width="2010" height="840" as="geometry" />
        </mxCell>
        <mxCell id="gY4HQTh1pNE1RITPi49o-64" value="Kon&lt;span style=&quot;background-color: initial;&quot;&gt;tener Docker - wdrożenie aplikacji&lt;/span&gt;" style="text;strokeColor=none;fillColor=none;html=1;fontSize=24;fontStyle=1;verticalAlign=middle;align=center;" vertex="1" parent="1">
          <mxGeometry x="629" y="-50" width="100" height="40" as="geometry" />
        </mxCell>
        <mxCell id="gY4HQTh1pNE1RITPi49o-65" value="" style="image;sketch=0;aspect=fixed;html=1;points=[];align=center;fontSize=12;image=img/lib/mscae/Docker.svg;" vertex="1" parent="1">
          <mxGeometry x="1550" y="670" width="85.37" height="70" as="geometry" />
        </mxCell>
        <mxCell id="gY4HQTh1pNE1RITPi49o-66" value="" style="rounded=1;whiteSpace=wrap;html=1;dashed=1;fillColor=none;" vertex="1" parent="1">
          <mxGeometry x="-300" y="30" width="390" height="440" as="geometry" />
        </mxCell>
        <mxCell id="gY4HQTh1pNE1RITPi49o-67" value="" style="endArrow=classic;startArrow=classic;html=1;rounded=0;entryX=0;entryY=0.5;entryDx=0;entryDy=0;exitX=0.997;exitY=0.54;exitDx=0;exitDy=0;exitPerimeter=0;" edge="1" parent="1" source="gY4HQTh1pNE1RITPi49o-66" target="gY4HQTh1pNE1RITPi49o-5">
          <mxGeometry width="50" height="50" relative="1" as="geometry">
            <mxPoint x="180" y="372.5" as="sourcePoint" />
            <mxPoint x="230" y="322.5" as="targetPoint" />
          </mxGeometry>
        </mxCell>
        <mxCell id="gY4HQTh1pNE1RITPi49o-68" value="" style="endArrow=classic;startArrow=classic;html=1;rounded=0;entryX=0;entryY=0.5;entryDx=0;entryDy=0;exitX=1;exitY=0.25;exitDx=0;exitDy=0;" edge="1" parent="1" source="gY4HQTh1pNE1RITPi49o-5" target="gY4HQTh1pNE1RITPi49o-33">
          <mxGeometry width="50" height="50" relative="1" as="geometry">
            <mxPoint x="830" y="360" as="sourcePoint" />
            <mxPoint x="880" y="310" as="targetPoint" />
          </mxGeometry>
        </mxCell>
        <mxCell id="gY4HQTh1pNE1RITPi49o-69" value="" style="rounded=1;whiteSpace=wrap;html=1;dashed=1;fillColor=none;" vertex="1" parent="1">
          <mxGeometry x="-290" y="490" width="380" height="210" as="geometry" />
        </mxCell>
        <mxCell id="gY4HQTh1pNE1RITPi49o-70" value="" style="endArrow=classic;startArrow=classic;html=1;rounded=0;entryX=-0.011;entryY=0.853;entryDx=0;entryDy=0;exitX=1;exitY=0.25;exitDx=0;exitDy=0;entryPerimeter=0;" edge="1" parent="1" source="gY4HQTh1pNE1RITPi49o-69" target="gY4HQTh1pNE1RITPi49o-5">
          <mxGeometry width="50" height="50" relative="1" as="geometry">
            <mxPoint x="139" y="268" as="sourcePoint" />
            <mxPoint x="450" y="370" as="targetPoint" />
          </mxGeometry>
        </mxCell>
      </root>
    </mxGraphModel>
  </diagram>
</mxfile>
